<?xml version="1.0" encoding="iso-8859-1"?>
<!-- Generator: Adobe Illustrator 19.0.0, SVG Export Plug-In . SVG Version: 6.00 Build 0)  -->
<svg version="1.1" id="Layer_1" xmlns="http://www.w3.org/2000/svg" xmlns:xlink="http://www.w3.org/1999/xlink" x="0px" y="0px"
	 viewBox="0 0 512 512" style="enable-background:new 0 0 512 512;" xml:space="preserve">
<circle style="fill:#E84F4F;" cx="256" cy="256" r="256"/>
<path style="fill:#C94545;" d="M508.374,299.848L357.378,148.853l-17.639,19.286l-14.835,24.891l-51.761-49.618l-17.308,10.221
	l-0.989,29.341l-8.242,17.803l-61.156-54.727l-11.539,17.968l0.66,52.09l-45.826-35.606l-11.539,11.044l35.111,125.28l1.154,56.047
	l136.819,136.819c110.937-14.671,199.293-100.388,218.25-210.009L508.374,299.848z"/>
<path style="fill:#F5BE18;" d="M255.835,150.83L230.12,289.462l-58.519-130.06l6.923,141.929l-62.805-106.324l37.584,178.194
	c12.858,0,71.377-10.221,102.696-10.055c53.738,0.329,101.707,5.11,102.532,10.055l37.584-178.194l-62.805,106.324l6.923-141.929
	l-58.684,130.225L255.835,150.83z"/>
<path style="fill:#FFD630;" d="M255.835,150.83L230.12,289.462l-58.519-130.06l6.923,141.929l-62.805-106.324l37.584,178.194l0,0
	c3.626-4.946,46.815-10.055,102.532-10.055L255.835,150.83L255.835,150.83z"/>
<path style="fill:#F5BE18;" d="M113.742,172.59c9.726,0,17.639,7.912,17.639,17.639s-7.912,17.639-17.639,17.639
	s-17.639-7.912-17.639-17.639S104.016,172.59,113.742,172.59z M398.424,171.766c9.726,0,17.639,7.912,17.639,17.639
	c0,9.726-7.912,17.639-17.639,17.639s-17.639-7.912-17.639-17.639C380.786,179.678,388.698,171.766,398.424,171.766z
	 M340.894,137.643c9.726,0,17.639,7.912,17.639,17.639c0,9.726-7.912,17.639-17.639,17.639c-9.726,0-17.639-7.912-17.639-17.639
	C323.255,145.555,331.168,137.643,340.894,137.643z M256,129.566c9.726,0,17.639,7.912,17.639,17.639
	c0,9.726-7.912,17.639-17.639,17.639s-17.639-7.912-17.639-17.639C238.361,137.479,246.275,129.566,256,129.566z M169.952,137.149
	c9.726,0,17.639,7.912,17.639,17.639c0,9.726-7.912,17.639-17.639,17.639c-9.726,0-17.639-7.912-17.639-17.639
	C152.314,145.061,160.227,137.149,169.952,137.149z"/>
<path style="fill:#FFD630;" d="M113.742,172.59c9.726,0,17.639,7.912,17.639,17.639s-7.912,17.639-17.639,17.639
	s-17.639-7.912-17.639-17.639S104.016,172.59,113.742,172.59z M256,129.401v35.276c-9.726,0-17.639-7.912-17.639-17.639
	C238.361,137.313,246.275,129.401,256,129.401z M169.952,136.984c9.726,0,17.639,7.912,17.639,17.639
	c0,9.726-7.912,17.639-17.639,17.639c-9.726,0-17.639-7.912-17.639-17.639C152.314,144.897,160.227,136.984,169.952,136.984z"/>
<path style="fill:#C94545;" d="M255.835,362.982c52.584,0,102.696,4.78,102.696,10.055s-45.991,9.561-102.696,9.561
	s-102.696-4.286-102.696-9.561s50.112-10.055,102.532-10.055H255.835z"/>
<g>
</g>
<g>
</g>
<g>
</g>
<g>
</g>
<g>
</g>
<g>
</g>
<g>
</g>
<g>
</g>
<g>
</g>
<g>
</g>
<g>
</g>
<g>
</g>
<g>
</g>
<g>
</g>
<g>
</g>
</svg>
