<?xml version="1.0" encoding="iso-8859-1"?>
<!-- Generator: Adobe Illustrator 19.0.0, SVG Export Plug-In . SVG Version: 6.00 Build 0)  -->
<svg version="1.1" id="Layer_1" xmlns="http://www.w3.org/2000/svg" xmlns:xlink="http://www.w3.org/1999/xlink" x="0px" y="0px"
	 viewBox="0 0 512 512" style="enable-background:new 0 0 512 512;" xml:space="preserve">
<path style="fill:#FF757C;" d="M256.001,0c141.383,0,255.998,114.614,255.998,256S397.385,512,256.001,512
	c-141.386,0-256-114.614-256-256C0.001,114.617,114.615,0,256.001,0z"/>
<path style="fill:#807D7D;" d="M82.747,36.226h215.426c6.354,0,11.551,5.199,11.551,11.551v286.028
	c0,6.354-5.199,11.551-11.551,11.551H82.747c-6.354,0-11.551-5.199-11.551-11.551V47.777C71.196,41.422,76.395,36.226,82.747,36.226
	z"/>
<path style="fill:#20D0C2;" d="M80.756,62.062h219.406v257.46H80.756V62.062z"/>
<path style="fill:#C8CACC;" d="M190.458,323.301c4.862,0,8.806,3.942,8.806,8.808c0,4.862-3.942,8.806-8.806,8.806
	c-4.864,0-8.806-3.942-8.806-8.806S185.594,323.301,190.458,323.301z"/>
<path style="fill:#DFE1E3;" d="M480.796,80.411H309.857v227.158h170.939V80.411z"/>
<path style="fill:#FFFFFF;" d="M474.642,80.411c-55.875,0-109.246-23.826-167.63,0v212.783h167.63V80.411z"/>
<path style="fill:#DFE1E3;" d="M133.224,80.411h166.605v227.158H133.224V80.411z"/>
<path style="fill:#FFFFFF;" d="M139.378,80.411c55.877,0,136.625-23.411,167.634,0v212.783H139.378V80.411z"/>
<path style="fill:#ECF0F1;" d="M304.168,80.411h5.684v212.783h-5.684V80.411z"/>
<path style="fill:#FBB429;" d="M153.703,98.378H218.4v8.888h-64.697V98.378z"/>
<g>
	<path style="fill:#DFE1E3;" d="M153.703,242.78h129.393v4.205H153.703V242.78z M153.703,234.302L153.703,234.302h129.393v4.205
		H153.703V234.302z M153.703,178.85L153.703,178.85h129.393v4.202H153.703V178.85z M153.703,221.245L153.703,221.245h56.658v4.205
		h-56.658V221.245z M153.703,212.765L153.703,212.765h129.393v4.202H153.703V212.765z M153.703,204.285L153.703,204.285h129.393
		v4.205H153.703V204.285z M153.703,195.808L153.703,195.808h129.393v4.202H153.703V195.808z M153.703,187.326L153.703,187.326
		h129.393v4.205H153.703V187.326z M153.703,276.695L153.703,276.695h44.533v4.205h-44.533V276.695z M153.703,268.215
		L153.703,268.215h129.393v4.205H153.703V268.215z M153.703,259.735L153.703,259.735h129.393v4.205H153.703V259.735z
		 M153.703,251.257L153.703,251.257h129.393v4.202H153.703V251.257z"/>
	<path style="fill:#DFE1E3;" d="M326.131,183.055h129.393v4.202H326.131V183.055z M326.131,174.575L326.131,174.575h129.393v4.205
		H326.131V174.575z M326.131,119.123L326.131,119.123h129.393v4.202H326.131V119.123z M326.131,161.52L326.131,161.52h56.653v4.202
		h-56.653V161.52z M326.131,153.038L326.131,153.038h129.393v4.207H326.131V153.038z M326.131,144.561L326.131,144.561h129.393
		v4.202H326.131V144.561z M326.131,136.081L326.131,136.081h56.653v4.202h-56.653V136.081z M326.131,127.601L326.131,127.601
		h129.393v4.202H326.131V127.601z M326.131,216.968L326.131,216.968h44.531v4.205h-44.531V216.968z M326.131,208.49L326.131,208.49
		h129.393v4.205H326.131V208.49z M326.131,200.01L326.131,200.01h129.393v4.202H326.131V200.01z M326.131,191.53L326.131,191.53
		h129.393v4.205H326.131V191.53z"/>
</g>
<path style="fill:#FF5B61;" d="M339.474,71.122l17.506-1.504v90.877l-8.811-6.412l-8.696,6.412V71.124V71.122z"/>
<path style="fill:#C8CACC;" d="M163.27,47.316h54.374c1.786,0,3.248,1.46,3.248,3.248c0,1.79-1.46,3.248-3.248,3.248H163.27
	c-1.786,0-3.248-1.46-3.248-3.248S161.482,47.316,163.27,47.316z"/>
<path style="fill:#FED198;" d="M359.362,258.123l1.087,20.701l5.975,7.549l0.183-41.334l-1.773-40.316l-4.643-42.174
	c-0.981-8.905,15.163-11.256,17.729-0.415l8.861,37.416l2.302,33.822l3.018,0.108l-1.078-15.963
	c-0.421-6.24,4.822-11.5,11.071-11.664c6.253-0.163,11.245,4.833,11.664,11.071l4.595,17.471l-0.955-11.183
	c-0.531-6.24,4.932-11.664,11.075-11.664c10.989,0,13.189,14.825,16.832,23.788l-0.198-4.602
	c-0.269-6.246,6.372-10.065,12.433-8.537c6.529,1.645,11.82,25.016,12.237,34.693l-3.936,62.364
	c-0.615,9.73-4.308,14.431-8.617,19.209l-1.457,77.604c-8.793,10.958-18.461,21.175-28.912,30.548
	c-13.461,2.791-27.799,3.226-43.078,9.995l1.003-118.788c-13.136-5.821-45.645-38.122-45.651-38.109l1.094-51.662
	c0.071-3.226,19.469-1.934,19.136,10.07H359.362z"/>
<g>
	<path style="fill:#FFFFFF;" d="M375.149,162.605l1.204,5.94l-11.13,0.344l-1.204-5.94
		C362.544,155.686,374.247,155.411,375.149,162.605z"/>
	<path style="fill:#FFFFFF;" d="M345.635,250.155c-0.055,0.256,0.891,12.096,0.891,12.096l-5.761-0.099l0.326-12.539
		C341.09,249.613,344.396,248.129,345.635,250.155z"/>
</g>
<path style="fill:#0E7886;" d="M378.013,364.666l87.043-1.475l1.427,38.532c-23.797,34.31-55.76,62.521-93.084,81.822l4.617-118.876
	L378.013,364.666z"/>
<path style="fill:#FFFFFF;" d="M380.418,353.567l82.126-0.534l-0.082,10.202l-82.117,1.391L380.418,353.567z"/>
<path style="fill:#C8CACC;" d="M450.021,392.718c3.387-0.029,6.16,2.624,6.196,5.924c0.033,3.301-2.686,6.004-6.074,6.035
	c-3.387,0.031-6.16-2.619-6.196-5.92S446.632,392.753,450.021,392.718z M450.021,375.538L450.021,375.538
	c3.387-0.029,6.16,2.624,6.196,5.924c0.033,3.301-2.686,6.004-6.074,6.035c-3.387,0.031-6.16-2.619-6.196-5.92
	C443.911,378.274,446.632,375.573,450.021,375.538z"/>
<path style="fill:#FED198;" d="M103.51,159.459l-54.032,19.149l-18.951,39.464c0,0-3.693,9.269,2.538,27.217l23.905,68.855
	l-2.024,31.212h36.25c0,0,5.81-83.65-5.133-103.143c-10.943-19.491-12.821-44.798-12.821-44.798s33.732-9.75,35.78-23.426
	C111.075,160.31,103.51,159.459,103.51,159.459z"/>
<g>
	<path style="fill:#FFFFFF;" d="M94.258,169.691l10.515-3.72c0.997-2.322-1.457-5.093-2.289-5.109l-9.622,3.589l1.393,5.237
		L94.258,169.691z"/>
	<path style="fill:#FFFFFF;" d="M51.965,345.356h74.698v11.825H51.965V345.356z"/>
</g>
<path style="fill:#0E7886;" d="M47.513,355.469h82.746l6.914,127.319c-35.674-18.73-66.392-45.623-89.66-78.206V355.469z"/>
<path style="fill:#C8CACC;" d="M96.924,45.093c3.023,0,5.47,2.447,5.47,5.47s-2.447,5.472-5.47,5.472
	c-3.021,0-5.472-2.45-5.472-5.472C91.451,47.543,93.901,45.093,96.924,45.093z"/>
<path style="fill:#807D7D;" d="M96.924,45.823c2.617,0,4.74,2.123,4.74,4.74s-2.123,4.74-4.74,4.74c-2.619,0-4.74-2.123-4.74-4.74
	S94.304,45.823,96.924,45.823z"/>
<g>
	<path style="fill:#C8CACC;" d="M96.924,49.159c0.776,0,1.404,0.628,1.404,1.404s-0.628,1.404-1.404,1.404
		c-0.776,0-1.404-0.628-1.404-1.404S96.148,49.159,96.924,49.159z"/>
	<path style="fill:#C8CACC;" d="M118.959,384.664c3.389-0.029,6.163,2.624,6.198,5.922c0.033,3.301-2.685,6.004-6.074,6.035
		c-3.387,0.033-6.16-2.617-6.196-5.918S115.572,384.699,118.959,384.664z M118.959,367.484L118.959,367.484
		c3.389-0.029,6.163,2.624,6.198,5.924c0.033,3.301-2.685,6.004-6.074,6.035c-3.387,0.031-6.16-2.619-6.196-5.92
		C112.852,370.22,115.572,367.519,118.959,367.484z"/>
</g>
<path style="fill:#ECF0F1;" d="M153.703,115.375h129.072v55.613H153.703V115.375z"/>
<g>
</g>
<g>
</g>
<g>
</g>
<g>
</g>
<g>
</g>
<g>
</g>
<g>
</g>
<g>
</g>
<g>
</g>
<g>
</g>
<g>
</g>
<g>
</g>
<g>
</g>
<g>
</g>
<g>
</g>
</svg>
