<?xml version="1.0" encoding="iso-8859-1"?>
<!-- Generator: Adobe Illustrator 19.0.0, SVG Export Plug-In . SVG Version: 6.00 Build 0)  -->
<svg version="1.1" id="Layer_1" xmlns="http://www.w3.org/2000/svg" xmlns:xlink="http://www.w3.org/1999/xlink" x="0px" y="0px"
	 viewBox="0 0 512 512" style="enable-background:new 0 0 512 512;" xml:space="preserve">
<path style="fill:#B3F4FF;" d="M512,72.031v367.938c0,19.144-15.576,34.71-34.71,34.71H34.71c-19.134,0-34.71-15.566-34.71-34.71
	V72.031c0-19.134,15.576-34.71,34.71-34.71h442.58C496.424,37.321,512,52.897,512,72.031z"/>
<path style="fill:#53DCFF;" d="M512,72.031v367.938c0,19.144-15.576,34.71-34.71,34.71H255.579V37.321H477.29
	C496.424,37.321,512,52.897,512,72.031z"/>
<path style="fill:#D8DCE1;" d="M512,72.031v72.136H0V72.031c0-19.134,15.576-34.71,34.71-34.71h442.58
	C496.424,37.321,512,52.897,512,72.031z"/>
<path style="fill:#FF4F19;" d="M71.385,90.664c0,8.299-6.736,15.035-15.035,15.035h-0.361c-8.299,0-15.035-6.736-15.035-15.035
	c0-8.309,6.736-15.035,15.035-15.035h0.361C64.649,75.629,71.385,82.355,71.385,90.664z"/>
<path style="fill:#FFD200;" d="M113.963,90.664c0,3.959-1.604,7.828-4.4,10.624c-0.341,0.351-0.712,0.682-1.093,0.992
	s-0.782,0.611-1.193,0.882c-0.401,0.271-0.832,0.521-1.263,0.752c-0.431,0.231-0.882,0.441-1.333,0.631
	c-0.451,0.18-0.912,0.351-1.383,0.491c-0.471,0.14-0.952,0.271-1.423,0.361c-0.481,0.1-0.972,0.17-1.463,0.221
	c-0.491,0.05-0.992,0.08-1.483,0.08c-0.481,0-0.982-0.03-1.473-0.08c-0.491-0.05-0.982-0.12-1.463-0.221
	c-0.471-0.09-0.952-0.221-1.423-0.361c-0.471-0.14-0.932-0.311-1.383-0.491c-0.451-0.19-0.902-0.401-1.333-0.631
	c-0.431-0.231-0.862-0.481-1.263-0.752c-0.411-0.271-0.812-0.571-1.193-0.882c-0.381-0.311-0.752-0.641-1.093-0.992
	c-2.796-2.796-4.41-6.675-4.41-10.624c0-0.491,0.03-0.992,0.08-1.483c0.05-0.491,0.12-0.972,0.221-1.453
	c0.1-0.481,0.221-0.962,0.361-1.433c0.14-0.471,0.311-0.932,0.491-1.383c0.19-0.451,0.401-0.902,0.631-1.333
	c0.231-0.431,0.481-0.862,0.752-1.263c0.271-0.411,0.571-0.812,0.882-1.193s0.641-0.752,0.992-1.093
	c0.341-0.351,0.712-0.682,1.093-0.992c0.381-0.311,0.782-0.611,1.193-0.882c0.401-0.271,0.832-0.521,1.263-0.752
	s0.882-0.441,1.333-0.631c0.451-0.18,0.912-0.351,1.383-0.491c0.471-0.15,0.952-0.271,1.423-0.361c0.481-0.1,0.972-0.17,1.463-0.221
	c0.491-0.05,0.972-0.07,1.473-0.07c0.491-0.01,0.992,0.02,1.483,0.07c0.491,0.05,0.982,0.12,1.463,0.221
	c0.471,0.09,0.952,0.21,1.423,0.361c0.471,0.14,0.932,0.311,1.383,0.491c0.451,0.19,0.902,0.401,1.333,0.631
	s0.862,0.481,1.263,0.752c0.411,0.271,0.812,0.571,1.193,0.882c0.381,0.311,0.752,0.641,1.093,0.992
	c0.351,0.341,0.682,0.712,0.992,1.093s0.611,0.782,0.882,1.193c0.271,0.401,0.521,0.832,0.752,1.263
	c0.231,0.431,0.441,0.882,0.631,1.333c0.18,0.451,0.351,0.912,0.491,1.383c0.14,0.471,0.261,0.952,0.361,1.433
	c0.1,0.471,0.17,0.962,0.221,1.453C113.943,89.672,113.963,90.173,113.963,90.664z"/>
<path style="fill:#74D24F;" d="M156.852,90.664c0,3.959-1.604,7.828-4.4,10.624c-0.351,0.351-0.722,0.682-1.103,0.992
	s-0.782,0.611-1.193,0.882c-0.401,0.271-0.832,0.521-1.263,0.752c-0.431,0.231-0.872,0.441-1.323,0.631
	c-0.461,0.18-0.922,0.351-1.393,0.491c-0.461,0.14-0.942,0.271-1.423,0.361c-0.481,0.1-0.972,0.17-1.463,0.221
	c-0.481,0.05-0.982,0.08-1.473,0.08s-0.992-0.03-1.483-0.08c-0.481-0.05-0.972-0.12-1.453-0.221
	c-0.481-0.09-0.962-0.221-1.433-0.361c-0.461-0.14-0.932-0.311-1.383-0.491c-0.451-0.19-0.902-0.401-1.333-0.631
	c-0.431-0.231-0.852-0.481-1.263-0.752c-0.411-0.271-0.802-0.571-1.183-0.882c-0.381-0.311-0.752-0.641-1.103-0.992
	c-2.796-2.796-4.4-6.665-4.4-10.624c0-0.491,0.02-0.992,0.07-1.483s0.12-0.972,0.221-1.453c0.1-0.481,0.221-0.962,0.361-1.433
	c0.14-0.471,0.311-0.932,0.501-1.383c0.18-0.451,0.401-0.902,0.621-1.333c0.231-0.431,0.491-0.862,0.762-1.263
	c0.271-0.411,0.561-0.812,0.872-1.193s0.652-0.752,0.992-1.093c0.351-0.351,0.722-0.682,1.103-0.992
	c0.381-0.311,0.772-0.611,1.183-0.882s0.832-0.521,1.263-0.752s0.882-0.441,1.333-0.631c0.451-0.18,0.922-0.351,1.383-0.491
	c0.471-0.15,0.952-0.271,1.433-0.361c0.481-0.1,0.972-0.17,1.453-0.221c0.491-0.05,0.992-0.07,1.483-0.07
	c3.949,0.01,7.828,1.594,10.635,4.4c0.341,0.341,0.672,0.712,0.992,1.093c0.301,0.381,0.601,0.782,0.872,1.193
	c0.271,0.401,0.521,0.832,0.752,1.263c0.231,0.431,0.441,0.882,0.631,1.333c0.19,0.451,0.351,0.912,0.501,1.383
	c0.14,0.471,0.261,0.952,0.361,1.433c0.09,0.481,0.17,0.962,0.221,1.453C156.821,89.672,156.852,90.173,156.852,90.664z"/>
<path style="fill:#E9001E;" d="M71.385,90.664c0,8.299-6.736,15.035-15.035,15.035h-0.18V75.629h0.18
	C64.649,75.629,71.385,82.355,71.385,90.664z"/>
<path style="fill:#FF9600;" d="M113.963,90.664c0,3.959-1.604,7.828-4.4,10.624c-0.341,0.351-0.712,0.682-1.093,0.992
	s-0.782,0.611-1.193,0.882c-0.401,0.271-0.832,0.521-1.263,0.752c-0.431,0.231-0.882,0.441-1.333,0.631
	c-0.451,0.18-0.912,0.351-1.383,0.491c-0.471,0.14-0.952,0.271-1.423,0.361c-0.481,0.1-0.972,0.17-1.463,0.221
	c-0.491,0.05-0.992,0.08-1.483,0.08V75.629c0.491-0.01,0.992,0.02,1.483,0.07c0.491,0.05,0.982,0.12,1.463,0.221
	c0.471,0.09,0.952,0.21,1.423,0.361c0.471,0.14,0.932,0.311,1.383,0.491c0.451,0.19,0.902,0.401,1.333,0.631
	s0.862,0.481,1.263,0.752c0.411,0.271,0.812,0.571,1.193,0.882c0.381,0.311,0.752,0.641,1.093,0.992
	c0.351,0.341,0.682,0.712,0.992,1.093s0.611,0.782,0.882,1.193c0.271,0.401,0.521,0.832,0.752,1.263
	c0.231,0.431,0.441,0.882,0.631,1.333c0.18,0.451,0.351,0.912,0.491,1.383c0.14,0.471,0.261,0.952,0.361,1.433
	c0.1,0.471,0.17,0.962,0.221,1.453C113.943,89.672,113.963,90.173,113.963,90.664z"/>
<path style="fill:#869B55;" d="M156.852,90.664c0,3.959-1.604,7.828-4.4,10.624c-0.351,0.351-0.722,0.682-1.103,0.992
	s-0.782,0.611-1.193,0.882c-0.401,0.271-0.832,0.521-1.263,0.752c-0.431,0.231-0.872,0.441-1.323,0.631
	c-0.461,0.18-0.922,0.351-1.393,0.491c-0.461,0.14-0.942,0.271-1.423,0.361c-0.481,0.1-0.972,0.17-1.463,0.221
	c-0.481,0.05-0.982,0.08-1.473,0.08V75.629c3.949,0.01,7.828,1.594,10.635,4.4c0.341,0.341,0.672,0.712,0.992,1.093
	c0.301,0.381,0.601,0.782,0.872,1.193c0.271,0.401,0.521,0.832,0.752,1.263c0.231,0.431,0.441,0.882,0.631,1.333
	c0.19,0.451,0.351,0.912,0.501,1.383c0.14,0.471,0.261,0.952,0.361,1.433c0.09,0.481,0.17,0.962,0.221,1.453
	C156.821,89.672,156.852,90.173,156.852,90.664z"/>
<path style="fill:#B9BBC1;" d="M512,72.031v72.136H255.579V37.321H477.29C496.424,37.321,512,52.897,512,72.031z"/>
<g>
	<path style="fill:#5C546A;" d="M196.252,178.937c-2.536,0-4.641,0.842-5.282,3.057l-16.047,54.185l-8.349-35.702
		c-0.631-2.847-4.33-4.33-7.918-4.33s-7.287,1.483-7.918,4.33l-8.349,35.702l-16.057-54.185c-0.631-2.215-2.746-3.057-5.282-3.057
		c-4.751,0-10.665,2.957-10.665,6.545c0,0.531,0.11,1.052,0.21,1.373l21.018,64.428c1.163,3.699,6.024,5.493,10.885,5.493
		c4.751,0,9.823-1.794,10.665-5.493l5.493-25.028l5.493,25.028c0.842,3.699,5.914,5.493,10.665,5.493
		c4.861,0,9.612-1.794,10.885-5.493l21.018-64.428c0.1-0.321,0.21-0.842,0.21-1.373
		C206.927,181.894,201.013,178.937,196.252,178.937z"/>
	<path style="fill:#5C546A;" d="M293.426,178.937c-2.536,0-4.641,0.842-5.272,3.057l-16.057,54.185l-8.349-35.702
		c-0.631-2.847-4.33-4.33-7.918-4.33c-0.08,0-0.17,0-0.251,0.01c-3.508,0.06-7.046,1.544-7.668,4.32l-8.349,35.702l-16.057-54.185
		c-0.631-2.215-2.746-3.057-5.272-3.057c-4.761,0-10.675,2.957-10.675,6.545c0,0.531,0.11,1.052,0.21,1.373l21.018,64.428
		c1.163,3.699,6.024,5.493,10.885,5.493c4.751,0,9.823-1.794,10.665-5.493l5.242-23.885l0.251-1.143l5.493,25.028
		c0.842,3.699,5.914,5.493,10.665,5.493c4.861,0,9.612-1.794,10.885-5.493l21.018-64.428c0.1-0.321,0.21-0.842,0.21-1.373
		C304.101,181.894,298.187,178.937,293.426,178.937z"/>
	<path style="fill:#5C546A;" d="M390.6,178.937c-2.526,0-4.641,0.842-5.272,3.057l-16.057,54.185l-8.349-35.702
		c-0.631-2.847-4.33-4.33-7.918-4.33s-7.287,1.483-7.918,4.33l-8.349,35.702l-16.047-54.185c-0.642-2.215-2.756-3.057-5.282-3.057
		c-4.761,0-10.675,2.957-10.675,6.545c0,0.531,0.11,1.052,0.21,1.373l21.018,64.428c1.163,3.699,6.024,5.493,10.885,5.493
		c4.751,0,9.823-1.794,10.665-5.493l5.493-25.028l5.493,25.028c0.842,3.699,5.914,5.493,10.665,5.493
		c4.861,0,9.612-1.794,10.885-5.493l21.018-64.428c0.1-0.321,0.21-0.842,0.21-1.373C401.275,181.894,395.361,178.937,390.6,178.937z
		"/>
</g>
<g>
	<path style="fill:#575065;" d="M304.101,185.482c0,0.531-0.11,1.052-0.21,1.373l-21.018,64.428
		c-1.273,3.699-6.024,5.493-10.885,5.493c-4.751,0-9.823-1.794-10.665-5.493l-5.493-25.028l-0.251,1.143v-31.242
		c0.08-0.01,0.17-0.01,0.251-0.01c3.588,0,7.287,1.483,7.918,4.33l8.349,35.702l16.057-54.185c0.631-2.215,2.736-3.057,5.272-3.057
		C298.187,178.937,304.101,181.894,304.101,185.482z"/>
	<path style="fill:#575065;" d="M401.275,185.482c0,0.531-0.11,1.052-0.21,1.373l-21.018,64.428
		c-1.273,3.699-6.024,5.493-10.885,5.493c-4.751,0-9.823-1.794-10.665-5.493l-5.493-25.028l-5.493,25.028
		c-0.842,3.699-5.914,5.493-10.665,5.493c-4.861,0-9.722-1.794-10.885-5.493l-21.018-64.428c-0.1-0.321-0.21-0.842-0.21-1.373
		c0-3.588,5.914-6.545,10.675-6.545c2.526,0,4.641,0.842,5.282,3.057l16.047,54.185l8.349-35.702c0.631-2.847,4.33-4.33,7.918-4.33
		s7.287,1.483,7.918,4.33l8.349,35.702l16.057-54.185c0.631-2.215,2.746-3.057,5.272-3.057
		C395.361,178.937,401.275,181.894,401.275,185.482z"/>
</g>
<g>
	<path style="fill:#5C546A;" d="M397.707,286.365c0,8.299-6.736,15.035-15.035,15.035H128.997c-8.309,0-15.035-6.736-15.035-15.035
		s6.726-15.035,15.035-15.035h253.675C390.971,271.33,397.707,278.066,397.707,286.365z"/>
	<path style="fill:#5C546A;" d="M397.707,346.574c0,8.299-6.736,15.035-15.035,15.035H248.733c-8.299,0-15.035-6.736-15.035-15.035
		c0-8.309,6.736-15.035,15.035-15.035h133.939C390.971,331.539,397.707,338.265,397.707,346.574z"/>
	<path style="fill:#5C546A;" d="M397.707,406.311c0,8.299-6.736,15.035-15.035,15.035h-73.8c-8.299,0-15.035-6.736-15.035-15.035
		c0-8.309,6.736-15.035,15.035-15.035h73.8C390.971,391.277,397.707,398.002,397.707,406.311z"/>
</g>
<g>
	<path style="fill:#575065;" d="M397.707,406.311c0,8.299-6.736,15.035-15.035,15.035h-36.895v-30.069h36.895
		C390.971,391.277,397.707,398.002,397.707,406.311z"/>
	<path style="fill:#575065;" d="M397.707,346.574c0,8.299-6.736,15.035-15.035,15.035h-66.964v-30.069h66.964
		C390.971,331.539,397.707,338.265,397.707,346.574z"/>
	<path style="fill:#575065;" d="M397.707,286.365c0,8.299-6.736,15.035-15.035,15.035H255.579V271.33h127.093
		C390.971,271.33,397.707,278.066,397.707,286.365z"/>
</g>
<g>
</g>
<g>
</g>
<g>
</g>
<g>
</g>
<g>
</g>
<g>
</g>
<g>
</g>
<g>
</g>
<g>
</g>
<g>
</g>
<g>
</g>
<g>
</g>
<g>
</g>
<g>
</g>
<g>
</g>
</svg>
